<svg xmlns="http://www.w3.org/2000/svg" viewBox="0 0 24 24" id="teddy-bear" style="display: none;">
  <path id="teddy-bear-path" d="M12 2a4 4 0 0 0-4 4c0 .73.195 1.41.528 2.008A4.002 4.002 0 0 0 6 12c0 1.282.487 2.444 1.292 3.292A5.999 5.999 0 0 0 5 18v1a3 3 0 0 0 6 0v-1h2v1a3 3 0 0 0 6 0v-1c0-1.657-.671-3.157-1.768-4.24C19.24 14.257 20 13.17 20 12a4 4 0 0 0-2.528-3.792c.333-.598.528-1.276.528-2.008a4 4 0 0 0-4-4c-.852 0-1.633.263-2.288.71A4.96 4.96 0 0 0 12 2zm-2.5 4a2.5 2.5 0 1 1 5 0 2.5 2.5 0 0 1-5 0zM10 10h4v2h-4v-2z"/>
</svg>
